<?xml version="1.0" standalone="no"?>
<!DOCTYPE svg PUBLIC "-//W3C//DTD SVG 20010904//EN"
 "http://www.w3.org/TR/2001/REC-SVG-20010904/DTD/svg10.dtd">
<svg version="1.0" xmlns="http://www.w3.org/2000/svg"
 width="1024.000000pt" height="1024.000000pt" viewBox="0 0 1024.000000 1024.000000"
 preserveAspectRatio="xMidYMid meet">

<g transform="translate(0.000000,1024.000000) scale(0.100000,-0.100000)"
fill="#0C4F8E" stroke="none">
<path d="M4969 8586 c-201 -57 -344 -265 -324 -471 8 -85 35 -166 74 -221 l28
-41 -46 -17 c-91 -33 -180 -97 -323 -230 -80 -75 -149 -144 -153 -153 -5 -14
42 -65 214 -233 l221 -215 0 -102 c0 -56 4 -113 10 -127 27 -72 107 -90 161
-37 l29 29 0 141 c0 77 -4 152 -10 168 -5 15 -90 105 -187 200 l-178 172 40
35 c113 102 249 179 375 213 90 25 319 24 409 -1 108 -30 287 -130 344 -193
17 -19 15 -22 -81 -111 l-99 -91 -201 -3 -202 -3 -27 -28 c-41 -41 -39 -99 5
-139 l33 -29 245 3 244 3 171 170 c93 94 175 178 180 188 13 23 -16 64 -119
165 -92 89 -227 181 -307 207 -33 11 -62 20 -64 22 -2 1 11 20 29 43 90 113
102 294 31 447 -40 85 -125 169 -216 214 -63 31 -79 34 -165 36 -55 1 -114 -3
-141 -11z m203 -198 c51 -15 121 -77 147 -131 51 -105 14 -247 -81 -313 -258
-177 -539 166 -318 387 27 27 63 52 81 58 48 13 125 13 171 -1z"/>
<path d="M6033 7268 c-26 -22 -150 -140 -274 -262 l-227 -221 -6 -120 c-8
-153 2 -221 38 -252 30 -26 62 -29 101 -11 44 20 55 55 56 180 l0 113 188 194
188 194 37 -39 c54 -57 101 -139 133 -229 26 -75 28 -90 28 -240 -1 -147 -3
-167 -28 -240 -28 -83 -77 -175 -127 -235 l-29 -35 -82 82 -82 81 2 135 c3
162 -8 198 -63 217 -29 9 -41 9 -68 -4 -57 -27 -62 -43 -66 -235 l-4 -173 169
-169 c121 -122 175 -169 192 -169 28 0 153 117 216 201 36 49 77 132 99 203 6
18 7 18 29 -2 63 -59 228 -101 329 -82 119 22 253 122 307 229 79 154 62 329
-45 464 -83 106 -211 170 -339 170 -86 0 -161 -23 -222 -70 -25 -19 -49 -31
-53 -26 -3 4 -14 29 -24 55 -28 76 -87 157 -183 251 -107 103 -120 106 -190
45z m739 -460 c51 -15 126 -82 149 -133 24 -53 24 -147 0 -200 -54 -119 -200
-169 -319 -109 -61 30 -98 74 -118 140 -19 64 -17 111 7 164 52 116 167 172
281 138z"/>
<path d="M4033 7251 c-104 -84 -219 -224 -243 -296 l-11 -32 -80 41 c-80 40
-83 41 -188 41 -100 0 -110 -2 -176 -34 -92 -45 -175 -128 -218 -218 -30 -64
-32 -75 -32 -178 0 -103 2 -114 32 -178 36 -75 114 -164 177 -201 127 -74 287
-73 425 5 29 17 54 29 56 27 1 -2 10 -26 19 -53 31 -96 87 -176 206 -295 63
-64 137 -131 164 -149 47 -33 49 -33 80 -18 34 16 530 518 552 559 36 64 -3
128 -78 128 -42 0 -44 -2 -274 -231 l-231 -231 -67 62 c-162 152 -236 333
-236 575 0 190 45 328 144 438 l43 48 96 -98 97 -98 0 -193 c0 -191 0 -193 25
-217 17 -17 35 -25 60 -25 92 0 105 34 105 277 0 103 -5 204 -10 224 -14 50
-327 359 -363 359 -14 0 -47 -17 -74 -39z m-433 -458 c86 -35 145 -125 143
-219 -3 -202 -233 -315 -383 -187 -111 96 -118 256 -14 359 69 70 159 87 254
47z"/>
<path d="M4845 6113 c-32 -8 -465 -444 -465 -469 0 -33 153 -173 236 -216 38
-20 88 -42 112 -49 38 -11 58 -29 32 -29 -18 0 -78 -104 -95 -164 -13 -43 -16
-85 -13 -156 3 -85 8 -105 38 -166 43 -88 137 -185 214 -220 167 -76 358 -45
494 81 109 101 159 224 149 365 -7 99 -30 169 -72 224 l-34 45 37 11 c68 22
176 93 250 163 39 39 72 77 72 86 0 18 -444 467 -482 487 -21 11 -73 14 -240
13 -117 -1 -222 -3 -233 -6z m551 -331 l154 -147 -28 -23 c-37 -33 -134 -78
-212 -99 -49 -14 -99 -18 -205 -17 -121 1 -152 5 -228 28 -90 27 -169 62 -220
99 l-29 20 146 146 146 146 161 -3 162 -3 153 -147z m-179 -497 c92 -45 140
-137 130 -251 -11 -148 -124 -243 -273 -231 -87 7 -147 43 -191 116 -57 95
-54 206 8 290 77 104 206 134 326 76z"/>
<path d="M1686 4145 c-103 -26 -177 -89 -212 -181 -17 -45 -19 -80 -19 -414 0
-349 1 -367 21 -410 41 -87 101 -141 198 -173 148 -50 342 18 406 142 21 42
40 135 40 198 l0 43 -94 0 -93 0 -6 -55 c-10 -100 -61 -156 -140 -157 -53 -1
-89 19 -117 65 -19 30 -20 52 -20 345 0 347 3 365 62 402 25 16 45 20 81 17
79 -7 114 -52 132 -170 l6 -38 87 3 87 3 -1 82 c-1 67 -6 92 -28 137 -67 136
-227 202 -390 161z"/>
<path d="M2480 4145 c-104 -29 -186 -109 -215 -210 -13 -45 -15 -109 -13 -398
l3 -344 35 -69 c63 -123 177 -182 334 -172 137 9 233 74 289 195 21 46 22 62
25 363 3 210 0 337 -8 382 -20 117 -102 219 -198 249 -62 18 -191 21 -252 4z
m199 -192 c59 -43 61 -59 61 -398 0 -275 -2 -314 -18 -344 -50 -100 -186 -106
-249 -12 -23 34 -23 38 -23 348 0 331 3 356 48 396 45 40 133 45 181 10z"/>
<path d="M4476 4145 c-67 -19 -124 -61 -163 -119 -56 -82 -58 -99 -58 -471 0
-315 1 -344 20 -394 52 -140 189 -221 354 -209 90 7 160 39 219 102 85 89 87
104 87 511 l0 350 -26 55 c-58 124 -148 180 -298 186 -54 2 -104 -2 -135 -11z
m204 -193 c58 -42 60 -58 60 -403 0 -312 0 -316 -23 -350 -63 -94 -198 -88
-250 12 -16 31 -17 64 -15 356 3 307 4 323 24 350 46 63 143 79 204 35z"/>
<path d="M8295 4147 c-66 -22 -99 -43 -141 -89 -77 -84 -79 -94 -79 -508 l0
-365 26 -55 c33 -70 79 -116 149 -149 47 -22 69 -26 150 -26 81 0 103 4 150
26 69 33 115 79 149 149 25 54 26 59 26 265 l0 210 -160 0 -160 0 0 -85 0 -85
63 -3 62 -3 0 -100 c0 -109 -11 -144 -54 -173 -35 -22 -113 -21 -152 3 -61 37
-66 69 -62 412 3 268 5 308 21 336 23 43 57 64 110 70 87 10 146 -55 147 -159
l0 -48 93 0 c52 0 96 2 98 4 2 3 2 42 -1 88 -10 136 -77 234 -188 273 -64 22
-196 29 -247 12z"/>
<path d="M3034 4137 c-4 -11 168 -1020 193 -1137 l8 -35 107 -3 c105 -3 108
-2 113 20 8 35 91 499 111 621 9 59 20 107 24 107 4 0 11 -21 14 -47 16 -112
118 -660 126 -681 10 -22 14 -23 112 -20 l103 3 14 70 c34 176 188 1101 184
1108 -2 4 -42 7 -88 7 -70 0 -86 -3 -94 -17 -10 -20 -19 -71 -87 -503 -25
-162 -47 -296 -49 -298 -5 -5 -9 18 -75 418 -33 201 -63 373 -66 383 -5 16
-16 17 -97 15 l-91 -3 -64 -395 c-35 -217 -66 -402 -69 -410 -6 -15 -69 343
-114 640 -12 80 -26 151 -32 158 -14 17 -176 17 -183 -1z"/>
<path d="M5102 3558 l3 -593 95 0 95 0 3 235 2 235 61 -1 c33 0 64 -5 68 -10
5 -5 39 -101 76 -214 37 -113 74 -215 81 -227 13 -21 22 -23 104 -23 67 0 90
3 90 13 0 7 -38 123 -84 259 l-85 245 37 24 c86 56 128 170 120 329 -8 160
-60 242 -184 291 -53 21 -79 23 -272 27 l-212 4 2 -594z m408 383 c63 -45 84
-163 45 -245 -29 -60 -64 -76 -167 -76 l-88 0 0 173 0 172 92 -3 c70 -2 99 -8
118 -21z"/>
<path d="M5935 4138 c-3 -7 -4 -274 -3 -593 l3 -580 98 -3 97 -3 0 163 0 162
47 78 c26 42 51 74 55 70 4 -4 38 -77 76 -162 38 -85 86 -190 105 -232 l36
-78 95 0 c52 0 97 4 100 8 3 5 -60 158 -140 341 l-145 333 57 106 c32 59 91
167 131 241 41 73 72 140 69 148 -4 11 -26 13 -98 11 l-93 -3 -145 -265 -145
-265 -3 268 -2 267 -95 0 c-67 0 -97 -4 -100 -12z"/>
<path d="M7195 4138 c-3 -7 -4 -274 -3 -593 l3 -580 93 -3 92 -3 0 386 c0 212
3 385 8 385 4 0 13 -18 20 -40 22 -71 272 -704 284 -717 8 -10 36 -13 107 -11
l96 3 0 590 0 590 -95 0 -95 0 0 -378 c0 -207 -2 -377 -5 -377 -3 0 -18 35
-34 78 -60 161 -258 658 -268 670 -7 8 -41 12 -105 12 -66 0 -95 -4 -98 -12z"/>
<path d="M6807 4134 c-4 -4 -7 -264 -7 -579 0 -431 3 -574 12 -583 17 -17 172
-16 187 2 8 9 10 172 9 587 l-3 574 -95 3 c-53 1 -99 0 -103 -4z"/>
<path d="M4183 2666 c-107 -35 -178 -103 -210 -201 -21 -65 -31 -599 -13 -702
26 -153 116 -246 264 -274 156 -29 310 47 372 183 27 62 28 66 28 258 l1 195
-160 0 -160 0 0 -85 0 -85 60 -1 60 -1 0 -99 c0 -83 -3 -103 -20 -126 -43 -59
-127 -75 -186 -35 -62 42 -64 51 -67 380 -3 277 -1 300 17 341 23 53 56 77
114 83 86 10 139 -41 147 -142 l5 -60 95 0 95 0 -1 77 c-1 62 -7 88 -28 132
-31 63 -90 120 -154 148 -59 27 -199 34 -259 14z"/>
<path d="M2669 2473 c-2 -458 1 -955 6 -964 10 -16 332 -11 405 7 116 27 199
94 236 190 17 45 19 79 19 379 l0 330 -26 55 c-30 63 -59 96 -115 133 -68 45
-139 57 -341 57 l-183 0 -1 -187z m397 -24 c69 -42 74 -67 74 -374 0 -241 -2
-274 -19 -311 -24 -54 -72 -76 -173 -82 l-78 -5 0 403 0 403 80 -6 c58 -4 89
-11 116 -28z"/>
<path d="M4868 2653 l-28 -4 0 -575 0 -575 98 3 97 3 3 564 c1 408 -1 568 -9
577 -11 14 -95 17 -161 7z"/>
<path d="M5220 2570 l0 -90 120 0 120 0 2 -487 3 -488 100 0 100 0 3 488 2
487 120 0 120 0 0 90 0 90 -345 0 -345 0 0 -90z"/>
<path d="M6217 2638 c-4 -13 -44 -194 -91 -403 -47 -209 -103 -456 -124 -550
-22 -93 -38 -173 -35 -177 2 -5 47 -8 99 -8 109 0 97 -13 128 133 l22 102 137
3 c75 1 137 0 137 -3 0 -8 40 -196 46 -217 5 -16 19 -18 105 -18 74 0 99 3 99
13 0 17 -29 150 -80 362 -22 94 -70 298 -106 455 -36 157 -69 295 -74 308 -9
21 -14 22 -134 22 -120 0 -124 -1 -129 -22z m188 -483 l51 -245 -104 0 c-94 0
-104 2 -100 18 3 9 25 119 49 244 24 125 46 228 49 228 3 0 28 -110 55 -245z"/>
<path d="M6922 2083 l3 -578 285 0 285 0 3 87 3 88 -188 2 -188 3 -3 488 -2
487 -100 0 -100 0 2 -577z"/>
<path d="M3555 2638 c-3 -7 -4 -265 -3 -573 l3 -560 95 0 95 0 0 570 0 570
-93 3 c-68 2 -94 -1 -97 -10z"/>
</g>
</svg>
