<?xml version="1.0" standalone="no"?>
<!DOCTYPE svg PUBLIC "-//W3C//DTD SVG 20010904//EN"
 "http://www.w3.org/TR/2001/REC-SVG-20010904/DTD/svg10.dtd">
<svg version="1.0" xmlns="http://www.w3.org/2000/svg"
 width="1024.000000pt" height="1024.000000pt" viewBox="0 0 1024.000000 1024.000000"
 preserveAspectRatio="xMidYMid meet">

<g transform="translate(0.000000,1024.000000) scale(0.100000,-0.100000)"
fill="#0C4F8E" stroke="none">
<path d="M5000 8203 c-86 -24 -144 -59 -208 -127 -97 -103 -145 -250 -122
-376 12 -67 54 -160 89 -197 12 -12 21 -24 21 -26 0 -2 -20 -12 -44 -21 -104
-40 -258 -162 -382 -304 -107 -122 -109 -124 -91 -159 15 -28 510 -525 600
-602 55 -47 55 -46 104 -26 57 24 73 43 73 88 0 39 -6 46 -270 307 l-270 267
57 54 c188 177 372 259 584 259 120 0 177 -13 294 -70 82 -39 118 -65 201
-141 l102 -94 -31 -35 c-16 -19 -57 -64 -91 -99 l-61 -64 -214 -1 -214 -1 -20
-26 c-29 -40 -25 -105 8 -138 l26 -26 232 0 c175 1 238 4 257 14 24 13 320
313 348 352 11 16 9 24 -16 61 -93 136 -275 293 -425 368 -83 41 -95 50 -80
59 23 12 71 107 89 176 18 67 18 170 -1 232 -34 114 -141 227 -269 284 -66 29
-192 34 -276 12z m197 -188 c59 -25 96 -59 127 -115 72 -133 0 -315 -142 -356
-70 -21 -156 -8 -212 31 -76 53 -117 182 -90 280 16 56 81 132 135 156 49 23
133 24 182 4z"/>
<path d="M4063 6871 c-76 -61 -205 -190 -252 -254 -24 -31 -60 -89 -80 -127
l-37 -70 -41 30 c-118 87 -315 92 -450 13 -143 -83 -233 -287 -203 -460 24
-147 100 -252 228 -315 57 -28 79 -34 157 -37 130 -5 240 25 302 82 13 11 24
19 25 16 2 -2 21 -40 42 -83 49 -99 127 -196 240 -304 96 -90 137 -117 170
-108 27 7 239 205 387 362 63 67 144 149 182 184 60 56 67 66 67 101 0 51 -17
85 -50 99 -54 22 -103 -10 -271 -179 -47 -47 -144 -141 -216 -209 -129 -121
-131 -122 -145 -99 -9 12 -54 67 -102 121 -135 154 -176 259 -176 445 0 106
35 244 87 345 26 50 63 97 123 158 l87 86 85 -86 86 -87 -5 -142 c-7 -183 1
-248 34 -279 32 -30 77 -39 114 -24 54 23 59 47 59 283 0 214 0 214 -26 253
-56 84 -318 324 -353 324 -11 0 -41 -17 -68 -39z m-576 -562 c47 -15 109 -88
127 -150 20 -66 20 -82 0 -150 -32 -107 -138 -179 -242 -165 -60 8 -98 33
-133 85 -102 155 -45 339 121 392 27 9 76 4 127 -12z"/>
<path d="M6075 6886 c-16 -8 -168 -151 -337 -318 l-308 -303 7 -40 c9 -60 36
-85 95 -85 48 0 51 2 156 99 59 55 177 169 262 255 85 86 160 156 166 156 19
0 153 -160 181 -215 143 -280 117 -567 -74 -820 -101 -134 -86 -131 -200 -30
l-98 88 -5 188 c-5 181 -6 188 -29 213 -28 30 -50 32 -90 12 -60 -31 -63 -48
-59 -270 4 -224 4 -225 80 -308 43 -47 258 -231 290 -249 13 -7 30 1 75 37 84
67 168 150 220 218 52 66 123 197 123 227 0 25 5 24 50 -11 21 -17 65 -43 97
-58 52 -24 69 -27 158 -26 78 1 113 6 158 23 84 33 166 116 214 217 34 71 38
89 41 175 5 112 -17 195 -71 277 -40 59 -138 133 -214 162 -122 47 -272 24
-376 -55 -52 -40 -57 -41 -57 -17 0 29 -45 114 -95 180 -56 75 -290 292 -314
292 -9 -1 -29 -7 -46 -14z m818 -567 c85 -23 157 -128 157 -227 0 -82 -19
-131 -70 -182 -89 -89 -200 -92 -288 -7 -138 132 -88 347 95 413 47 16 58 17
106 3z"/>
<path d="M5230 5742 c-22 -22 -40 -48 -40 -59 0 -28 34 -69 130 -158 47 -43
157 -149 246 -235 l160 -158 -70 -75 c-79 -83 -204 -169 -311 -213 -68 -28
-76 -29 -235 -29 -145 0 -172 3 -224 22 -93 35 -194 105 -286 197 l-85 86 83
83 82 82 194 5 c177 5 197 7 223 26 59 44 66 102 17 151 l-25 25 -237 -7
c-277 -8 -264 -3 -380 -132 -165 -183 -192 -217 -192 -243 0 -83 229 -299 404
-381 46 -21 89 -39 94 -39 24 0 22 -23 -6 -54 -64 -73 -96 -224 -73 -337 29
-141 113 -249 240 -312 62 -30 72 -32 176 -32 125 0 163 11 255 76 64 44 119
112 151 184 16 37 23 77 26 155 5 94 3 113 -21 185 -15 44 -36 92 -46 107
l-20 27 63 31 c157 77 447 337 447 400 0 24 -118 155 -327 361 -338 334 -336
333 -413 261z m9 -1157 c132 -72 148 -250 33 -364 -92 -91 -210 -94 -301 -8
-95 90 -95 234 0 329 52 52 87 66 168 67 39 1 65 -6 100 -24z"/>
<path d="M2449 3220 c-124 -21 -217 -118 -249 -260 -17 -76 -24 -461 -12 -595
14 -140 50 -220 126 -272 126 -87 310 -81 434 13 36 28 77 102 100 179 19 65
28 495 13 619 -13 110 -50 195 -105 242 -65 55 -210 91 -307 74z m175 -209
c44 -41 51 -94 51 -381 0 -283 -6 -326 -49 -377 -19 -22 -33 -27 -85 -31 -78
-6 -114 9 -138 56 -16 33 -18 67 -18 347 0 294 1 312 20 345 29 49 77 72 143
67 36 -3 59 -10 76 -26z"/>
<path d="M4472 3220 c-29 -4 -77 -20 -106 -34 -62 -31 -112 -95 -148 -191 -22
-58 -22 -73 -23 -390 l0 -330 28 -61 c35 -76 74 -115 152 -151 53 -25 72 -28
155 -28 75 0 104 4 141 21 68 32 116 79 148 148 48 99 53 151 49 481 -3 288
-4 302 -26 349 -34 75 -68 114 -124 142 -41 21 -169 57 -188 53 -3 -1 -29 -5
-58 -9z m164 -213 c41 -48 46 -91 42 -391 -3 -270 -4 -283 -26 -323 -27 -52
-59 -74 -115 -80 -54 -5 -104 20 -132 67 -19 33 -20 51 -20 335 0 296 0 301
24 349 30 60 64 78 145 73 49 -3 63 -8 82 -30z"/>
<path d="M8285 3220 c-71 -10 -124 -35 -168 -78 -91 -87 -107 -170 -107 -534
0 -296 9 -365 54 -436 34 -53 63 -77 131 -109 53 -25 71 -28 155 -28 77 1 105
5 145 23 68 31 118 82 152 156 27 59 28 66 31 259 l4 197 -172 0 -171 0 3 -77
3 -78 79 -3 79 -3 -7 -97 c-10 -128 -23 -157 -82 -183 -75 -34 -152 -11 -187
55 -21 39 -22 56 -25 327 -4 323 0 351 53 398 31 27 43 31 95 31 52 0 64 -4
94 -31 28 -24 38 -43 49 -92 l13 -62 85 3 c46 2 87 7 91 11 14 13 -12 126 -43
189 -59 120 -200 184 -354 162z"/>
<path d="M1588 3205 c-63 -23 -124 -72 -156 -122 -56 -89 -57 -101 -57 -448 0
-307 1 -323 23 -394 19 -58 33 -83 70 -120 72 -72 110 -86 222 -85 151 1 254
53 304 153 25 50 59 187 50 202 -5 8 -184 14 -184 5 0 -35 -25 -116 -43 -134
-75 -80 -187 -68 -230 26 -21 45 -22 61 -22 342 0 278 1 297 21 334 34 66 127
96 194 63 30 -14 58 -68 68 -129 l7 -43 78 -3 c42 -2 85 2 96 7 18 10 18 14 5
76 -28 134 -85 214 -183 258 -59 27 -208 34 -263 12z"/>
<path d="M2995 3153 c4 -32 46 -292 93 -578 l87 -520 104 0 105 0 28 160 c15
88 46 263 67 389 37 210 45 247 54 235 2 -2 16 -74 31 -159 16 -85 48 -260 72
-388 24 -129 44 -236 44 -238 0 -2 47 -4 105 -4 76 0 107 4 110 13 3 6 27 154
55 327 59 374 117 710 131 764 14 51 5 56 -93 56 -89 0 -79 13 -98 -130 -6
-47 -24 -168 -40 -270 -16 -102 -37 -237 -46 -300 -9 -63 -20 -119 -24 -124
-5 -4 -13 16 -19 45 -5 30 -39 207 -76 394 -36 187 -68 350 -70 363 -5 21 -10
22 -90 22 -47 0 -85 -3 -85 -8 0 -18 -83 -512 -112 -660 -17 -90 -34 -160 -38
-155 -4 4 -18 76 -30 158 -11 83 -36 245 -55 360 -18 116 -36 231 -40 258 l-6
47 -86 0 -85 0 7 -57z"/>
<path d="M5074 3197 c-3 -9 -6 -269 -7 -579 l-2 -563 98 -3 97 -3 0 236 0 236
47 -3 47 -3 82 -230 81 -230 102 -3 c60 -2 101 1 101 7 0 17 -162 455 -173
469 -8 11 -7 16 5 23 76 42 122 125 139 244 27 196 -35 332 -176 385 -52 20
-84 23 -247 28 -164 4 -188 3 -194 -11z m358 -178 c26 -7 43 -19 54 -41 37
-71 26 -205 -21 -263 -22 -29 -27 -30 -114 -33 l-91 -4 0 176 0 176 68 0 c37
0 84 -5 104 -11z"/>
<path d="M5890 2630 l0 -580 95 0 95 0 0 162 0 162 41 67 41 68 116 -229 117
-230 103 0 c56 0 102 3 102 7 0 3 -72 148 -160 320 -88 173 -160 318 -160 322
0 8 7 22 173 319 54 94 97 177 97 182 0 7 -37 10 -102 8 l-103 -3 -63 -115
c-35 -63 -95 -175 -133 -249 -38 -73 -69 -129 -70 -125 0 5 0 112 1 237 1 165
-2 232 -10 243 -9 10 -35 14 -96 14 l-84 0 0 -580z"/>
<path d="M6720 2630 l0 -580 95 0 95 0 -2 578 -3 577 -92 3 -93 3 0 -581z"/>
<path d="M7132 2633 l3 -578 94 -3 94 -3 -5 366 c-3 201 -2 365 2 365 4 0 31
-55 60 -122 29 -68 73 -168 98 -223 25 -55 71 -163 102 -240 l58 -140 88 0 89
0 0 575 0 575 -92 3 -93 3 0 -371 c0 -203 -3 -370 -7 -370 -5 0 -27 46 -50
103 -76 185 -263 609 -274 623 -8 10 -36 14 -90 14 l-79 0 2 -577z"/>
</g>
</svg>
